# xmcd CD database file
#
# Track frame offsets:
#	150
#	25645
#	50770
#	74865
#	86597
#	109367
#	163575
#	177805
#
# Disc length: 3083 seconds
#
# Revision: 0
# Processed by: cddbd v1.5.1PL0 Copyright (c) Steve Scherf et al.
# Submitted via: Feurio! 1.66 - http://www.feurio.com
#
DISCID=6c0c0908
DTITLE=songs: ohia - ghost tropic
DYEAR=2000
DGENRE=
TTITLE0=lightning risked it all
TTITLE1=the body burned away
TTITLE2=no limits on the words
TTITLE3=ghost tropic
TTITLE4=the ocean's nerves
TTITLE5=not just a ghost's heart
TTITLE6=ghost tropic
TTITLE7=incantation
EXTD=
EXTT0=
EXTT1=
EXTT2=
EXTT3=
EXTT4=
EXTT5=
EXTT6=
EXTT7=
PLAYORDER=
